# xmcd
#
# Track frame offsets: 
#        150
#        16203
#        31246
#        43629
#        55726
#        73028
#        84949
#        94923
#        105681
#        123532
#        135384
#        147170
#        160221
#        172827
#        185128
#        196966
#        208982
#        217977
#        231162
#        243165
#        257119
#        268967
#        281431
#        292530
#
# Disc length: 4098 seconds
#
# Revision: 1
# Processed by: cddbd v1.5.2PL0 Copyright (c) Steve Scherf et al.
# Submitted via: ExactAudioCopy v0.95b3
#
DISCID=58100018
DTITLE=Bobby Bare - Real Thing, I Hate Goodbyes, Ride Me Down Easy
DYEAR=2013
DGENRE=Country
TTITLE0=Sunday Mornin' Comin' Down
TTITLE1=Chicago Story
TTITLE2=Barbara Joy
TTITLE3=California Dreams
TTITLE4=Singer Of Sad Songs
TTITLE5=Real Thing (More Than A Memory)
TTITLE6=Tulsa County
TTITLE7=Maggie (I Wish We'd Never Met)
TTITLE8=Homecoming
TTITLE9=Come On Home And Sing The Blues To Daddy
TTITLE10=I Hate Goodbyes
TTITLE11=What's Your Mama's Name, Child
TTITLE12=You Know Who
TTITLE13=A Train That Never Runs
TTITLE14=An Offer She Couldn't Refuse
TTITLE15=A Restless Wind
TTITLE16=Send Tomorrow To The Moon
TTITLE17=Poison Red Berries
TTITLE18=I'll Love The Hurt Out Of You
TTITLE19=Ride Me Down Easy
TTITLE20=The Streets Of Baltimore
TTITLE21=The Town That Broke My Heart
TTITLE22=A Rainy Day In Richmond
TTITLE23=(Margie's At) The Lincoln Park Inn
EXTD=
EXTT0=
EXTT1=
EXTT2=
EXTT3=
EXTT4=
EXTT5=
EXTT6=
EXTT7=
EXTT8=
EXTT9=
EXTT10=
EXTT11=
EXTT12=
EXTT13=
EXTT14=
EXTT15=
EXTT16=
EXTT17=
EXTT18=
EXTT19=
EXTT20=
EXTT21=
EXTT22=
EXTT23=
PLAYORDER=
